<svg width="50" height="50" viewBox="0 0 50 50" fill="none" xmlns="http://www.w3.org/2000/svg">
<g clip-path="url(#clip0_78_787)">
<path d="M43.2822 8.7871C38.9512 4.45605 33.1902 2.06934 27.0691 2.06934C20.8348 2.06934 15.0018 4.52806 10.6502 8.99285C10.1769 9.47636 10.1872 10.2582 10.6707 10.7417C11.1543 11.215 11.9361 11.2047 12.4196 10.7212C16.3083 6.73988 21.5035 4.54863 27.0691 4.54863C38.3545 4.53834 47.531 13.7148 47.531 25.0003C47.531 36.2857 38.3545 45.4622 27.0691 45.4622C15.7837 45.4622 6.60717 36.2857 6.60717 25.0003V24.7431L8.6441 26.78C8.88072 27.0166 9.19963 27.1401 9.51854 27.1401C9.83746 27.1401 10.1461 27.0166 10.393 26.78C10.8765 26.2965 10.8765 25.5146 10.393 25.0311L6.25739 20.8852C5.77388 20.4017 4.99203 20.4017 4.50851 20.8852L0.362636 25.0311C-0.120879 25.5146 -0.120879 26.2965 0.362636 26.78C0.84615 27.2635 1.628 27.2635 2.11152 26.78L4.14845 24.7431V25.0003C4.14845 31.1213 6.53516 36.8824 10.8662 41.2134C15.1973 45.5445 20.9583 47.9312 27.0794 47.9312C33.2005 47.9312 38.9615 45.5445 43.2925 41.2134C47.6236 36.8824 50 31.1213 50 25.0003C50 18.8792 47.6133 13.1182 43.2822 8.7871Z" fill="#00C8FF"/>
<path d="M33.6325 16.6569L18.4687 31.8104C17.9852 32.294 17.9852 33.0758 18.4687 33.5593C18.7053 33.7959 19.0242 33.9194 19.3431 33.9194C19.6621 33.9194 19.9707 33.7959 20.2176 33.5593L35.3814 18.3955C35.8649 17.912 35.8649 17.1301 35.3814 16.6466C34.8979 16.1734 34.116 16.1734 33.6325 16.6569Z" fill="#00C8FF"/>
<path d="M29.6615 26.8621C27.9435 28.5802 27.9435 31.3887 29.6615 33.1067C30.4948 33.94 31.6059 34.4029 32.789 34.4029C33.972 34.4029 35.0831 33.94 35.9164 33.1067C37.6344 31.3887 37.6344 28.5802 35.9164 26.8621C35.0831 26.0289 33.972 25.5659 32.789 25.5659C31.6059 25.5659 30.5051 26.0289 29.6615 26.8621ZM34.1675 31.3681C33.7971 31.7384 33.3136 31.9339 32.789 31.9339C32.2643 31.9339 31.7808 31.7282 31.4104 31.3681C30.6491 30.6068 30.6491 29.3723 31.4104 28.611C31.7808 28.2407 32.2643 28.0452 32.789 28.0452C33.3136 28.0452 33.7971 28.251 34.1675 28.611C34.9288 29.3723 34.9288 30.6068 34.1675 31.3681Z" fill="#00C8FF"/>
<path d="M21.3904 15.5562C20.2073 15.5562 19.0962 16.0191 18.2629 16.8524C17.4297 17.6857 16.9667 18.7967 16.9667 19.9798C16.9667 21.1629 17.4297 22.2739 18.2629 23.1072C19.0962 23.9405 20.2073 24.4034 21.3904 24.4034C22.5734 24.4034 23.6845 23.9405 24.5178 23.1072C25.3511 22.2739 25.814 21.1629 25.814 19.9798C25.814 18.7967 25.3511 17.6857 24.5178 16.8524C23.6742 16.0191 22.5734 15.5562 21.3904 15.5562ZM22.7689 21.3583C22.3985 21.7287 21.915 21.9241 21.3904 21.9241C20.8657 21.9241 20.3822 21.7184 20.0118 21.3583C19.6415 20.988 19.446 20.5045 19.446 19.9798C19.446 19.4551 19.6518 18.9716 20.0118 18.6013C20.3822 18.2309 20.8657 18.0354 21.3904 18.0354C21.915 18.0354 22.3985 18.2412 22.7689 18.6013C23.1392 18.9716 23.3347 19.4551 23.3347 19.9798C23.3347 20.4942 23.1392 20.988 22.7689 21.3583Z" fill="#00C8FF"/>
</g>
<defs>
<clipPath id="clip0_78_787">
<rect width="50" height="50" fill="white"/>
</clipPath>
</defs>
</svg>
