<svg width="50" height="50" viewBox="0 0 50 50" fill="none" xmlns="http://www.w3.org/2000/svg">
<path d="M46.7607 9.88551L37.8321 6.31408C37.619 6.22864 37.381 6.22864 37.1679 6.31408L28.2393 9.88551C28.0738 9.95184 27.9319 10.0662 27.832 10.2139C27.732 10.3616 27.6786 10.5358 27.6786 10.7141V19.9427C27.6832 21.6383 28.1245 23.3043 28.9599 24.7799C29.7953 26.2555 30.9966 27.4911 32.4482 28.3677L37.0411 31.123C37.1797 31.2061 37.3384 31.25 37.5 31.25C37.6617 31.25 37.8203 31.2061 37.9589 31.123L41.9643 28.7194V38.7194C41.9638 39.1076 41.8094 39.4798 41.5349 39.7543C41.2604 40.0288 40.8882 40.1833 40.5 40.1837H5.92857C5.54037 40.1833 5.16819 40.0288 4.89369 39.7543C4.61918 39.4798 4.46476 39.1076 4.46429 38.7194V18.7498H25C25.2368 18.7498 25.4639 18.6557 25.6313 18.4883C25.7988 18.3208 25.8929 18.0937 25.8929 17.8569C25.8929 17.6201 25.7988 17.393 25.6313 17.2256C25.4639 17.0581 25.2368 16.9641 25 16.9641H4.46429V14.8569C4.46476 14.4687 4.61918 14.0966 4.89369 13.8221C5.16819 13.5475 5.54037 13.3931 5.92857 13.3926H25C25.2368 13.3926 25.4639 13.2986 25.6313 13.1311C25.7988 12.9637 25.8929 12.7366 25.8929 12.4998C25.8929 12.263 25.7988 12.0359 25.6313 11.8684C25.4639 11.701 25.2368 11.6069 25 11.6069H5.92857C5.06677 11.6074 4.24039 11.95 3.631 12.5594C3.02161 13.1688 2.67905 13.9951 2.67857 14.8569V38.7141C2.67905 39.5759 3.02161 40.4023 3.631 41.0117C4.24039 41.621 5.06677 41.9636 5.92857 41.9641H40.5C41.3618 41.9636 42.1882 41.621 42.7976 41.0117C43.407 40.4023 43.7495 39.5759 43.75 38.7141V27.4998C44.8622 26.5776 45.7585 25.4226 46.3756 24.1162C46.9927 22.8098 47.3156 21.3839 47.3214 19.9391V10.7141C47.3214 10.5358 47.268 10.3616 47.168 10.2139C47.0681 10.0662 46.9262 9.95184 46.7607 9.88551ZM45.5357 19.9427C45.5321 21.3301 45.171 22.6933 44.4872 23.9006C43.8035 25.108 42.8202 26.1187 41.6321 26.8355L37.5 29.3159L33.3679 26.8355C32.1798 26.1187 31.1965 25.108 30.5128 23.9006C29.8291 22.6933 29.4679 21.3301 29.4643 19.9427V11.3176L37.5 8.10336L45.5357 11.3176V19.9427Z" fill="#00C8FF"/>
<path d="M34.5607 17.3781C34.4778 17.2951 34.3794 17.2292 34.271 17.1843C34.1627 17.1393 34.0465 17.1161 33.9292 17.116C33.8119 17.1159 33.6957 17.139 33.5873 17.1838C33.4789 17.2286 33.3803 17.2943 33.2973 17.3772C33.2143 17.4601 33.1484 17.5586 33.1035 17.6669C33.0585 17.7753 33.0353 17.8914 33.0352 18.0088C33.0351 18.1261 33.0582 18.2423 33.103 18.3507C33.1478 18.4591 33.2135 18.5576 33.2964 18.6406L35.6786 21.021C35.846 21.1884 36.0731 21.2824 36.3098 21.2824C36.5466 21.2824 36.7736 21.1884 36.9411 21.021L41.7036 16.2585C41.871 16.0908 41.965 15.8635 41.9648 15.6266C41.9646 15.3897 41.8703 15.1625 41.7027 14.9951C41.535 14.8277 41.3077 14.7337 41.0708 14.7339C40.8339 14.7341 40.6067 14.8283 40.4393 14.996L36.3089 19.1281L34.5607 17.3781Z" fill="#00C8FF"/>
<path d="M8.92858 34.8213C8.69178 34.8213 8.46468 34.9154 8.29723 35.0828C8.12979 35.2502 8.03572 35.4773 8.03572 35.7141C8.03572 35.9509 8.12979 36.178 8.29723 36.3455C8.46468 36.5129 8.69178 36.607 8.92858 36.607H16.0714C16.3082 36.607 16.5353 36.5129 16.7028 36.3455C16.8702 36.178 16.9643 35.9509 16.9643 35.7141C16.9643 35.4773 16.8702 35.2502 16.7028 35.0828C16.5353 34.9154 16.3082 34.8213 16.0714 34.8213H8.92858Z" fill="#00C8FF"/>
</svg>
