<svg width="50" height="50" viewBox="0 0 50 50" fill="none" xmlns="http://www.w3.org/2000/svg">
<g clip-path="url(#clip0_78_798)">
<path fill-rule="evenodd" clip-rule="evenodd" d="M9.30098 19.3828C9.30098 19.8143 8.95117 20.1641 8.51973 20.1641H5.01865V22.2658H7.63203C8.06348 22.2658 8.41328 22.6156 8.41328 23.0471C8.41328 23.4785 8.06348 23.8283 7.63203 23.8283H5.01865V26.7113C5.01865 27.1428 4.66885 27.4926 4.2374 27.4926C3.80596 27.4926 3.45615 27.1428 3.45615 26.7113V19.3827C3.45615 18.9513 3.80596 18.6015 4.2374 18.6015H8.51982C8.95127 18.6016 9.30098 18.9514 9.30098 19.3828ZM16.0115 20.2704V22.1593C16.0115 23.044 15.3196 23.7702 14.4485 23.825L15.9049 26.3173C16.1226 26.6897 15.9971 27.1683 15.6245 27.3859C15.5006 27.4583 15.3649 27.4928 15.2311 27.4928C14.9625 27.4928 14.7011 27.3542 14.5558 27.1056L12.6407 23.8283H11.7292V26.7113C11.7292 27.1428 11.3794 27.4926 10.9479 27.4926C10.5165 27.4926 10.1667 27.1428 10.1667 26.7113V19.3827C10.1667 18.9513 10.5165 18.6015 10.9479 18.6015H14.3426C15.2629 18.6016 16.0115 19.3502 16.0115 20.2704ZM14.449 20.2704C14.449 20.2137 14.3993 20.164 14.3426 20.164H11.7292V22.2658H14.3426C14.3993 22.2658 14.449 22.216 14.449 22.1593V20.2704ZM24.369 27.4926H28.6515C29.0829 27.4926 29.4327 27.1428 29.4327 26.7113C29.4327 26.2799 29.0829 25.9301 28.6515 25.9301H25.1503V23.8283H27.7637C28.1951 23.8283 28.5449 23.4785 28.5449 23.0471C28.5449 22.6156 28.1951 22.2658 27.7637 22.2658H25.1503V20.1641H28.6515C29.0829 20.1641 29.4327 19.8143 29.4327 19.3828C29.4327 18.9514 29.0829 18.6016 28.6515 18.6016H24.369C23.9376 18.6016 23.5878 18.9514 23.5878 19.3828V26.7114C23.5878 27.1428 23.9375 27.4926 24.369 27.4926ZM17.6585 27.4926H21.9409C22.3724 27.4926 22.7222 27.1428 22.7222 26.7113C22.7222 26.2799 22.3724 25.9301 21.9409 25.9301H18.4397V23.8283H21.0531C21.4846 23.8283 21.8344 23.4785 21.8344 23.0471C21.8344 22.6156 21.4846 22.2658 21.0531 22.2658H18.4397V20.1641H21.9409C22.3724 20.1641 22.7222 19.8143 22.7222 19.3828C22.7222 18.9514 22.3724 18.6016 21.9409 18.6016H17.6585C17.2271 18.6016 16.8772 18.9514 16.8772 19.3828V26.7114C16.8772 27.1428 17.227 27.4926 17.6585 27.4926ZM50 25.4824V36.7679C50 38.0064 48.9925 39.014 47.7539 39.014H45.2843C44.9111 41.2279 42.9815 42.9202 40.6631 42.9202C38.3446 42.9202 36.4151 41.2279 36.0419 39.014H17.1869C16.8138 41.2279 14.8842 42.9202 12.5657 42.9202C10.2473 42.9202 8.31777 41.2279 7.94453 39.014H2.73428C1.22666 39.0141 0 37.7874 0 36.2798V9.81436C0 8.30674 1.22666 7.08008 2.73428 7.08008H30.1544C31.6621 7.08008 32.8888 8.30674 32.8888 9.81436V13.3478H42.9004C44.2517 13.3478 45.4006 14.0761 45.8985 15.2486L49.7726 24.3703C49.9277 24.736 50 25.0894 50 25.4824ZM15.6908 38.2328C15.6908 36.5097 14.289 35.1078 12.5658 35.1078C10.8427 35.1078 9.44082 36.5097 9.44082 38.2328C9.44082 39.956 10.8427 41.3578 12.5658 41.3578C14.289 41.3578 15.6908 39.9559 15.6908 38.2328ZM17.1869 37.4516H31.3262V9.81436C31.3262 9.16826 30.8005 8.64258 30.1543 8.64258H2.73428C2.08818 8.64258 1.5625 9.16826 1.5625 9.81436V36.2798C1.5625 36.9259 2.08818 37.4516 2.73428 37.4516H7.94463C8.31777 35.2376 10.2474 33.5453 12.5658 33.5453C14.8843 33.5453 16.8138 35.2376 17.1869 37.4516ZM43.7882 38.2328C43.7882 36.5097 42.3863 35.1078 40.6632 35.1078C38.94 35.1078 37.5382 36.5097 37.5382 38.2328C37.5382 39.956 38.94 41.3578 40.6632 41.3578C42.3863 41.3578 43.7882 39.9559 43.7882 38.2328ZM48.4375 36.768V35.5379H46.7404C45.9373 35.5379 45.2839 34.8846 45.2839 34.0814V31.2453C45.2839 30.4422 45.9372 29.7889 46.7404 29.7889H48.4375V25.4824C48.4375 25.2989 48.4076 25.1536 48.3343 24.9808L44.4604 15.8593C44.2117 15.2739 43.614 14.9102 42.9004 14.9102H32.8888V37.4515H36.0421C36.4152 35.2375 38.3448 33.5452 40.6633 33.5452C42.9817 33.5452 44.9112 35.2375 45.2845 37.4515H47.7539C48.1309 37.4516 48.4375 37.1448 48.4375 36.768ZM46.8464 31.3514V33.9754H48.4375V31.3514H46.8464ZM45.8245 25.5346H35.1098C34.6783 25.5346 34.3285 25.1848 34.3285 24.7533V17.1313C34.3285 16.6999 34.6783 16.3501 35.1098 16.3501H42.5874C42.9009 16.3501 43.184 16.5374 43.3064 16.826L46.5435 24.448C46.6459 24.6893 46.6206 24.9658 46.4759 25.1845C46.3313 25.403 46.0867 25.5346 45.8245 25.5346ZM44.6439 23.9721L42.0705 17.9126H35.8911V23.9721H44.6439ZM12.5657 36.902C11.8302 36.902 11.2349 37.4973 11.2349 38.2328C11.2349 38.9684 11.8302 39.5637 12.5657 39.5637C13.3013 39.5637 13.8966 38.9684 13.8966 38.2328C13.8967 37.4973 13.3014 36.902 12.5657 36.902ZM40.6632 36.902C39.9276 36.902 39.3323 37.4973 39.3323 38.2328C39.3323 38.9684 39.9276 39.5637 40.6632 39.5637C41.3987 39.5637 41.9941 38.9684 41.9941 38.2328C41.994 37.4973 41.3987 36.902 40.6632 36.902Z" fill="#00C8FF"/>
</g>
<defs>
<clipPath id="clip0_78_798">
<rect width="50" height="50" fill="white"/>
</clipPath>
</defs>
</svg>
